# xmcd
#
# Track frame offsets: 
#        150
#        17889
#        40398
#
# Disc length: 776 seconds
#
# Revision: 0
# Processed by: cddbd v1.5.2PL0 Copyright (c) Steve Scherf et al.
# Submitted via: ExactAudioCopy v1.0b3
#
DISCID=1f030603
DTITLE=宮野真守 - DREAM FIGHTER
DYEAR=1900
DGENRE=Acid
TTITLE0=DREAM FIGHTER
TTITLE1=Last Around
TTITLE2=innocence
EXTD=
EXTT0=
EXTT1=
EXTT2=
PLAYORDER=
